M48
; DRILL file KiCad 10.0.6 date 2026-09-15T13:12:31
; FORMAT={-:-/ absolute / metric / decimal}
; #@! TF.CreationDate,2026-09-15T13:12:31+05:30
; #@! TF.GenerationSoftware,Kicad,Pcbnew,10.0.6
; #@! TF.FileFunction,Plated,1,2,PTH
FMAT,2
METRIC
; #@! TA.AperFunction,Plated,PTH,ComponentDrill
T1C1.000
; #@! TA.AperFunction,Plated,PTH,ComponentDrill
T2C1.500
%
G90
G05
T1
X181.92Y-68.925
X181.92Y-71.465
X181.92Y-74.005
X181.92Y-76.545
X181.92Y-79.085
X181.92Y-81.625
X181.92Y-84.165
X197.17Y-68.925
X197.17Y-71.465
X197.17Y-74.005
X197.17Y-76.545
X197.17Y-79.085
X197.17Y-81.625
X197.17Y-84.165
T2
X185.735Y-74.005
X185.735Y-89.095
X185.735Y-104.185
X192.085Y-71.465
X192.085Y-86.555
X192.085Y-101.645
M30
